<svg width="28" height="28" viewBox="0 0 28 28" fill="none" xmlns="http://www.w3.org/2000/svg">
<rect width="28" height="28" rx="14" fill="black" fill-opacity="0.909804"/>
<path d="M14.0016 10.4094C12.0141 10.4094 10.4109 12.0125 10.4109 14C10.4109 15.9875 12.0141 17.5906 14.0016 17.5906C15.9891 17.5906 17.5922 15.9875 17.5922 14C17.5922 12.0125 15.9891 10.4094 14.0016 10.4094ZM14.0016 16.3344C12.7172 16.3344 11.6672 15.2875 11.6672 14C11.6672 12.7125 12.7141 11.6656 14.0016 11.6656C15.2891 11.6656 16.3359 12.7125 16.3359 14C16.3359 15.2875 15.2859 16.3344 14.0016 16.3344ZM18.5766 10.2625C18.5766 10.7281 18.2016 11.1 17.7391 11.1C17.2734 11.1 16.9016 10.725 16.9016 10.2625C16.9016 9.8 17.2766 9.425 17.7391 9.425C18.2016 9.425 18.5766 9.8 18.5766 10.2625ZM20.9547 11.1125C20.9016 9.99063 20.6453 8.99688 19.8234 8.17813C19.0047 7.35938 18.0109 7.10313 16.8891 7.04688C15.7328 6.98125 12.2672 6.98125 11.1109 7.04688C9.99219 7.1 8.99844 7.35625 8.17656 8.175C7.35469 8.99375 7.10156 9.9875 7.04531 11.1094C6.97969 12.2656 6.97969 15.7313 7.04531 16.8875C7.09844 18.0094 7.35469 19.0031 8.17656 19.8219C8.99844 20.6406 9.98906 20.8969 11.1109 20.9531C12.2672 21.0188 15.7328 21.0188 16.8891 20.9531C18.0109 20.9 19.0047 20.6438 19.8234 19.8219C20.6422 19.0031 20.8984 18.0094 20.9547 16.8875C21.0203 15.7313 21.0203 12.2688 20.9547 11.1125ZM19.4609 18.1281C19.2172 18.7406 18.7453 19.2125 18.1297 19.4594C17.2078 19.825 15.0203 19.7406 14.0016 19.7406C12.9828 19.7406 10.7922 19.8219 9.87344 19.4594C9.26094 19.2156 8.78906 18.7438 8.54219 18.1281C8.17656 17.2063 8.26094 15.0188 8.26094 14C8.26094 12.9813 8.17969 10.7906 8.54219 9.87188C8.78594 9.25938 9.25781 8.7875 9.87344 8.54063C10.7953 8.175 12.9828 8.25938 14.0016 8.25938C15.0203 8.25938 17.2109 8.17813 18.1297 8.54063C18.7422 8.78438 19.2141 9.25625 19.4609 9.87188C19.8266 10.7938 19.7422 12.9813 19.7422 14C19.7422 15.0188 19.8266 17.2094 19.4609 18.1281Z" fill="white"/>
</svg>
