<svg width="28" height="28" viewBox="0 0 28 28" fill="none" xmlns="http://www.w3.org/2000/svg">
<rect width="28" height="28" rx="14" fill="black"/>
<path d="M21.4926 10.3057C21.3123 9.64194 20.7826 9.12099 20.1098 8.94454C18.8901 8.62244 14 8.62244 14 8.62244C14 8.62244 9.10993 8.62244 7.89027 8.94454C7.21745 9.12099 6.68779 9.64194 6.50742 10.3057C6.18103 11.5073 6.18103 14.0112 6.18103 14.0112C6.18103 14.0112 6.18103 16.5151 6.50742 17.7167C6.68779 18.3805 7.21745 18.879 7.89027 19.0555C9.10993 19.3776 14 19.3776 14 19.3776C14 19.3776 18.8901 19.3776 20.1098 19.0555C20.7826 18.879 21.3123 18.3777 21.4926 17.7167C21.819 16.5151 21.819 14.0112 21.819 14.0112C21.819 14.0112 21.819 11.5073 21.4926 10.3057ZM12.4024 16.2855V11.7369L16.488 14.0112L12.4024 16.2855Z" fill="white"/>
</svg>
